<svg width="1600" height="1200" viewBox="0 0 1600 1200" fill="none" xmlns="http://www.w3.org/2000/svg">
<g id="xbox">
<g id="xbox-logo">
<path d="M800.503 511.45C763.998 539.531 738.444 573.79 738.444 588.673C738.365 593.641 739.628 595.942 743.779 599.344C755.57 609.005 777.452 619.587 800.503 619.282C824.653 619.282 847.399 608.236 857.227 599.344C861.159 595.787 862.282 593.166 862.282 588.673C862.282 572.947 831.393 536.442 800.503 511.45Z" fill="#F7F7F7" stroke="#F7F7F7"/>
<path d="M800.5 465.677H799.938C776.028 452.875 767.125 451.939 753.043 452.76C760.905 446.02 776.627 439 800.219 439C821.28 439 841.218 447.424 847.115 452.76C831.027 451.127 820.231 454.995 800.5 465.677Z" fill="#F7F7F7" stroke="#F7F7F7"/>
<path d="M775.508 488.704C730.038 548.733 727.77 565.085 728.893 583.899C716.818 568.735 710.078 552.729 710.078 526.613C710.078 501.34 720.749 481.403 736.756 465.116C737.583 464.273 739.844 464.086 741.249 464.554C753.959 468.785 761.503 474.408 775.508 488.704Z" fill="#F7F7F7" stroke="#F7F7F7"/>
<path d="M824.931 488.673C870.4 548.703 872.669 565.054 871.545 583.869C883.62 568.705 890.36 552.699 890.36 526.583C890.36 501.31 879.689 481.372 863.683 465.085C862.855 464.243 860.594 464.056 859.19 464.524C846.479 468.755 838.935 474.378 824.931 488.673Z" fill="#F7F7F7" stroke="#F7F7F7"/>
<path d="M800.503 511.45L800.68 511.231L800.508 511.092L800.332 511.227L800.503 511.45ZM738.444 588.673L738.725 588.677V588.673H738.444ZM743.779 599.344L743.957 599.127L743.779 599.344ZM800.503 619.282V619.001L800.5 619.001L800.503 619.282ZM857.227 599.344L857.039 599.136L857.227 599.344ZM800.5 465.677V465.958H800.571L800.634 465.924L800.5 465.677ZM799.938 465.677L799.806 465.925L799.868 465.958H799.938V465.677ZM753.043 452.76L752.86 452.547C752.768 452.625 752.737 452.753 752.782 452.865C752.827 452.977 752.939 453.047 753.059 453.04L753.043 452.76ZM800.219 439V439.281V439ZM847.115 452.76L847.086 453.039C847.207 453.051 847.322 452.985 847.371 452.874C847.421 452.763 847.393 452.633 847.303 452.552L847.115 452.76ZM775.508 488.704L775.731 488.873L775.878 488.68L775.708 488.507L775.508 488.704ZM728.893 583.899L728.673 584.074L729.226 584.768L729.173 583.882L728.893 583.899ZM736.756 465.116L736.956 465.312L736.756 465.116ZM741.249 464.554L741.337 464.287L741.249 464.554ZM824.931 488.673L824.73 488.477L824.561 488.65L824.707 488.843L824.931 488.673ZM871.545 583.869L871.265 583.852L871.212 584.738L871.765 584.044L871.545 583.869ZM863.683 465.085L863.482 465.282L863.683 465.085ZM859.19 464.524L859.101 464.257L859.19 464.524ZM800.332 511.227C782.062 525.281 766.53 540.882 755.563 554.837C750.08 561.814 745.734 568.385 742.758 574.148C739.785 579.904 738.163 584.884 738.163 588.673H738.725C738.725 585.02 740.297 580.137 743.257 574.406C746.212 568.682 750.536 562.142 756.005 555.184C766.941 541.268 782.439 525.699 800.675 511.672L800.332 511.227ZM738.163 588.669C738.123 591.177 738.421 593.045 739.275 594.723C740.126 596.397 741.516 597.852 743.601 599.561L743.957 599.127C741.892 597.434 740.574 596.038 739.776 594.469C738.979 592.904 738.685 591.138 738.725 588.677L738.163 588.669ZM743.601 599.561C755.432 609.255 777.376 619.869 800.507 619.562L800.5 619.001C777.527 619.305 755.708 608.755 743.957 599.127L743.601 599.561ZM800.503 619.562C824.724 619.562 847.537 608.49 857.416 599.552L857.039 599.136C847.261 607.982 824.582 619.001 800.503 619.001V619.562ZM857.416 599.552C859.396 597.761 860.689 596.187 861.484 594.478C862.279 592.766 862.563 590.943 862.563 588.673H862.001C862.001 590.896 861.723 592.63 860.974 594.241C860.224 595.855 858.991 597.37 857.039 599.136L857.416 599.552ZM862.563 588.673C862.563 584.666 860.601 579.383 857.218 573.35C853.829 567.307 848.992 560.475 843.194 553.359C831.598 539.127 816.139 523.739 800.68 511.231L800.327 511.668C815.757 524.152 831.188 539.513 842.759 553.714C848.544 560.814 853.36 567.619 856.728 573.625C860.102 579.64 862.001 584.817 862.001 588.673H862.563ZM800.5 465.396H799.938V465.958H800.5V465.396ZM800.071 465.43C788.108 459.025 779.881 455.577 772.873 453.837C765.858 452.096 760.079 452.068 753.026 452.479L753.059 453.04C760.088 452.63 765.802 452.661 772.737 454.383C779.679 456.106 787.858 459.528 799.806 465.925L800.071 465.43ZM753.225 452.973C761.027 446.286 776.68 439.281 800.219 439.281V438.719C776.575 438.719 760.784 445.755 752.86 452.547L753.225 452.973ZM800.219 439.281C810.714 439.281 820.934 441.38 829.265 444.146C837.606 446.914 844.021 450.339 846.926 452.968L847.303 452.552C844.312 449.845 837.809 446.39 829.442 443.613C821.065 440.832 810.785 438.719 800.219 438.719V439.281ZM847.143 452.48C830.97 450.839 820.112 454.74 800.366 465.43L800.634 465.924C820.349 455.25 831.084 451.415 847.086 453.039L847.143 452.48ZM775.284 488.534C752.546 518.552 740.595 537.669 734.471 551.644C728.338 565.638 728.049 574.476 728.612 583.916L729.173 583.882C728.613 574.508 728.897 565.763 734.985 551.87C741.082 537.958 752.999 518.884 775.731 488.873L775.284 488.534ZM729.112 583.724C717.077 568.61 710.359 552.666 710.359 526.613H709.798C709.798 552.792 716.558 568.86 728.673 584.074L729.112 583.724ZM710.359 526.613C710.359 501.43 720.989 481.56 736.956 465.312L736.555 464.919C720.51 481.246 709.798 501.251 709.798 526.613H710.359ZM736.956 465.312C737.301 464.962 737.992 464.714 738.817 464.623C739.63 464.533 740.504 464.602 741.16 464.82L741.337 464.287C740.589 464.038 739.631 463.967 738.755 464.064C737.892 464.16 737.038 464.427 736.555 464.919L736.956 465.312ZM741.16 464.82C753.809 469.031 761.315 474.618 775.307 488.9L775.708 488.507C761.691 474.198 754.109 468.54 741.337 464.287L741.16 464.82ZM824.707 488.843C847.439 518.854 859.357 537.928 865.453 551.839C871.542 565.733 871.825 574.478 871.265 583.852L871.826 583.886C872.389 574.445 872.1 565.607 865.968 551.614C859.843 537.639 847.892 518.522 825.154 488.504L824.707 488.843ZM871.765 584.044C883.88 568.83 890.641 552.762 890.641 526.583H890.079C890.079 552.635 883.361 568.58 871.326 583.694L871.765 584.044ZM890.641 526.583C890.641 501.22 879.928 481.215 863.883 464.888L863.482 465.282C879.45 481.529 890.079 501.4 890.079 526.583H890.641ZM863.883 464.888C863.4 464.397 862.547 464.13 861.683 464.034C860.808 463.937 859.849 464.008 859.101 464.257L859.278 464.79C859.934 464.572 860.808 464.502 861.621 464.592C862.446 464.684 863.138 464.931 863.482 465.282L863.883 464.888ZM859.101 464.257C846.329 468.509 838.748 474.168 824.73 488.477L825.131 488.87C839.123 474.587 846.63 469.001 859.278 464.79L859.101 464.257Z" fill="#F7F7F7"/>
</g>
<path id="xbox-x2" d="M922.373 650.739H903.839L941.468 702.689L900.469 759.133H919.003L950.735 715.326L982.466 759.133H1001L960.001 702.689L997.63 650.739H979.378L950.735 690.053L922.373 650.739Z" fill="#F7F7F7" stroke="#F7F7F7" stroke-width="0.561625"/>
<path id="xbox-o" fill-rule="evenodd" clip-rule="evenodd" d="M799.377 704.648C799.377 669.828 819.314 649.048 852.45 649.048C888.394 649.048 905.243 674.321 905.243 704.648C905.243 741.716 885.305 761.934 852.45 761.934C817.068 761.934 799.377 738.346 799.377 704.648ZM852.45 663.65C829.985 663.65 817.068 681.622 817.068 704.648C817.068 731.606 832.793 747.051 852.45 747.051C874.915 747.051 888.113 730.202 888.113 704.648C888.113 680.218 873.511 663.65 852.45 663.65Z" fill="#F7F7F7" stroke="#F7F7F7" stroke-width="0.561625"/>
<path id="xbox-b" fill-rule="evenodd" clip-rule="evenodd" d="M694.941 696.63L684.805 710.707H709.299V759.133H761.948C776.588 759.133 796.296 751.531 796.296 729.008C796.296 715.494 791.51 709.581 777.714 702.543C785.316 697.475 791.791 691.844 791.791 677.485C791.791 660.555 778.277 650.739 757.725 650.739H709.299V696.63H694.941ZM725.629 664.816V696.912H758.006C768.423 696.912 775.743 692.407 775.743 680.582C775.743 669.884 768.986 664.816 758.006 664.816H725.629ZM725.629 744.774V710.707H760.258C771.52 710.707 779.685 715.494 779.685 727.318C779.685 738.58 772.083 744.774 760.258 744.774H725.629Z" fill="#F7F7F7" stroke="#F7F7F7" stroke-width="0.561625"/>
<path id="xbox-x1" d="M621.903 650.739H603.37L640.999 702.689L600 759.133H618.534L650.265 715.326L681.997 759.133H700.531L659.532 702.689L697.161 650.739H678.908L650.265 690.053L621.903 650.739Z" fill="#F7F7F7" stroke="#F7F7F7" stroke-width="0.561625"/>
</g>
</svg>
